<svg xmlns="http://www.w3.org/2000/svg" viewBox="0 0 50 50" width="50" height="50">
	<style>
		tspan { white-space:pre }
		.shp0 { fill: #34004b } 
		.shp1 { fill: #480964 } 
		.shp2 { fill: #ffff00 } 
	</style>
	<path id="Layer" fill-rule="evenodd" class="shp0" d="M46.33 13.76L46.33 36.48C46.33 37.06 46.01 37.55 45.51 37.88L25.82 49.28C25.33 49.61 24.67 49.61 24.18 49.28L4.49 37.88C3.99 37.63 3.67 37.06 3.67 36.48L3.67 13.76C3.67 13.18 3.99 12.69 4.49 12.36L24.18 1.04C24.67 0.71 25.33 0.71 25.82 1.04L45.51 12.36C46.01 12.69 46.33 13.18 46.33 13.76ZM43.05 14.74L25 4.32L6.95 14.74L6.89 29.01L6.95 35.58L25 46L43.05 35.58L43.05 14.74Z" />
	<path id="Forma 4" class="shp0" d="" />
	<path id="Forma 4" class="shp1" d="" />
	<path id="Forma 1" class="shp1" d="" />
	<path id="Forma 2" class="shp1" d="" />
	<path id="Forma 3" class="shp1" d="M6.89 19.5L6.89 35.65L25 46.13L43.15 35.64L43.16 25.88C43.16 25.88 40.1 28.65 28.21 26.77C22.89 25.93 20 25.2 14.17 21.77C12.77 20.94 9.11 19.74 6.89 19.5Z" />
	<path id="Layer" class="shp2" d="M28.04 21.88L34.85 22.86L29.92 27.7L31.07 34.51L25 31.23L18.93 34.43L20.08 27.62L15.15 22.78L21.96 21.8L25 15.64L28.04 21.88Z" />
</svg>