<?xml version="1.0" encoding="UTF-8" standalone="no"?>
<!-- Generator: Adobe Illustrator 19.0.0, SVG Export Plug-In . SVG Version: 6.00 Build 0)  -->

<svg
   xmlns:dc="http://purl.org/dc/elements/1.1/"
   xmlns:cc="http://creativecommons.org/ns#"
   xmlns:rdf="http://www.w3.org/1999/02/22-rdf-syntax-ns#"
   xmlns:svg="http://www.w3.org/2000/svg"
   xmlns="http://www.w3.org/2000/svg"
   xmlns:sodipodi="http://sodipodi.sourceforge.net/DTD/sodipodi-0.dtd"
   xmlns:inkscape="http://www.inkscape.org/namespaces/inkscape"
   version="1.1"
   id="Layer_1"
   x="0px"
   y="0px"
   viewBox="0 0 96 96"
   style="enable-background:new 0 0 96 96;"
   xml:space="preserve"
   sodipodi:docname="logocorrigida.svg"
   inkscape:version="0.92.5 (0.92.5+69)"><metadata
   id="metadata97"><rdf:RDF><cc:Work
       rdf:about=""><dc:format>image/svg+xml</dc:format><dc:type
         rdf:resource="http://purl.org/dc/dcmitype/StillImage" /><dc:title></dc:title></cc:Work></rdf:RDF></metadata><defs
   id="defs95"><inkscape:perspective
     sodipodi:type="inkscape:persp3d"
     inkscape:vp_x="0 : 48 : 1"
     inkscape:vp_y="0 : 1000 : 0"
     inkscape:vp_z="96 : 48 : 1"
     inkscape:persp3d-origin="48 : 32 : 1"
     id="perspective152" /></defs><sodipodi:namedview
   pagecolor="#ffffff"
   bordercolor="#666666"
   borderopacity="1"
   objecttolerance="10"
   gridtolerance="10"
   guidetolerance="10"
   inkscape:pageopacity="0"
   inkscape:pageshadow="2"
   inkscape:window-width="1366"
   inkscape:window-height="712"
   id="namedview93"
   showgrid="false"
   inkscape:lockguides="false"
   inkscape:zoom="8"
   inkscape:cx="62.226021"
   inkscape:cy="37.061906"
   inkscape:window-x="0"
   inkscape:window-y="30"
   inkscape:window-maximized="1"
   inkscape:current-layer="Layer_1"><sodipodi:guide
     position="46,-36"
     inkscape:color="rgb(167,0,255)"
     inkscape:label=""
     orientation="-0,1"
     id="guide840"
     inkscape:locked="false" /><sodipodi:guide
     position="49,-30.75"
     inkscape:color="rgb(167,0,255)"
     inkscape:label="Início"
     orientation="-1,6.12323e-17"
     id="guide842"
     inkscape:locked="false" /><sodipodi:guide
     position="21.945313,48.101563"
     inkscape:color="rgb(167,0,255)"
     inkscape:label="Fim"
     orientation="-0,1"
     id="guide844"
     inkscape:locked="false" /><sodipodi:guide
     position="-22.130233,-36.382854"
     inkscape:color="rgb(167,0,255)"
     inkscape:label=""
     orientation="-1,6.12323e-17"
     id="guide846"
     inkscape:locked="false" /></sodipodi:namedview>
<style
   type="text/css"
   id="style88">
	.st0{fill:#333333;}
</style>
<path
   style="fill:#232f3e;fill-opacity:1;stroke:#232f3e;stroke-width:1.01971996;stroke-opacity:1"
   d="m 44.419922,23.699219 v 8.851562 h -8.648438 v 6.216797 c -5.291221,1.031775 -8.832031,2.913874 -8.832031,5.082031 v 4.556641 l -11.450387,-0.0023 0.06172,11.873382 h 11.388672 v 8.75 c 0,3.280799 8.080876,5.921875 18.119141,5.921875 h 9.355468 c 9.483368,0 17.210731,-2.357904 18.03711,-5.384766 h 4.509766 v -22.06835 h 8.179687 V 46.9082 h 0.0078 V 23.699219 Z"
   id="rect1058"
   inkscape:connector-curvature="0"
   sodipodi:nodetypes="ccccsccccssscccccccc" /><g
   id="XMLID_5_"
   transform="translate(143.16079,-9.1738077)">
	<path
   style="fill:#f3a712;fill-opacity:1;stroke:#f3a712;stroke-width:1.46366262;stroke-opacity:1"
   d="m -80.189117,23.681718 c -8.745384,0 -17.490767,3.328689 -24.150443,9.988354 l -22.12074,22.678193 h 10.04267 l 18.078525,-16.677748 c 4.830087,-4.830087 11.270774,-7.464107 18.149988,-7.464107 6.879216,0 13.319903,2.63402 18.14999,7.464107 4.830086,4.830086 5.257178,9.807112 5.257178,16.686326 l 8.521832,-0.0086 c 0,-8.781976 -1.04572,-16.091712 -7.778567,-22.678193 -6.659665,-6.659709 -15.405049,-9.988398 -24.150433,-9.988398 z m -48.300873,34.127353 -12.14953,0.01137 24.15042,24.150433 c 13.31934,13.31933 34.981545,13.31933 48.300874,0 6.732848,-6.586481 9.954049,-15.379893 9.954049,-24.161867 l -8.490386,0.01137 c 0,6.879214 -2.634021,13.3199 -7.464109,18.149987 -4.830085,4.830086 -11.270773,7.464109 -18.149987,7.464109 -6.879214,0 -13.319901,-2.634023 -18.149981,-7.464109 z"
   id="XMLID_9_"
   inkscape:connector-curvature="0"
   sodipodi:nodetypes="cccccsscccccccscccsscc" />
<path
   style="fill:#f3a712;fill-opacity:1;stroke:#f3a712;stroke-width:0.20475304px;stroke-linecap:butt;stroke-linejoin:miter;stroke-opacity:1"
   d="m -106.03249,57.16839 c -0.10512,0.0044 -0.24056,0.07947 -0.40847,0.247383 l -7.39726,7.913401 c 0,0 6.39833,-0.964162 7.98367,-6.880716 0.17932,-0.66931 0.13742,-1.293199 -0.17794,-1.280068 z m 8.373225,0.05301 c -0.1447,0.006 -0.33143,0.10953 -0.56257,0.340666 l -10.182585,10.893511 c 0,0 8.807365,-1.327216 10.989665,-9.47167 0.24686,-0.921341 0.1896,-1.78058 -0.24451,-1.762507 z m 11.538684,0.02178 c -0.192763,0.008 -0.441226,0.145758 -0.749133,0.453673 l -13.565006,14.512215 c 0,0 11.732825,-1.768449 14.640009,-12.61821 0.328864,-1.227378 0.252435,-2.371759 -0.32587,-2.347678 z"
   id="path1049"
   inkscape:connector-curvature="0" /></g>
</svg>