<svg width="1439" height="967" viewBox="0 0 1439 967" fill="none" xmlns="http://www.w3.org/2000/svg">
<path d="M0 9.63481C103.703 3.11517 222.477 -12.0441 330.115 18.0465C464.661 55.6598 513.678 55.2837 619.715 52.2746C725.752 49.2655 844.293 26.6975 928.323 38.7338C1012.35 50.7701 1132.89 75.5948 1218.92 66.9438C1287.75 60.0229 1417.83 26.8229 1439 18.0465V882.776C1406 903.933 1315.78 949.542 1218.92 962.721C1097.85 979.194 1110.5 944.309 1011 922.506C911.5 900.703 759 955.453 652 962.721C545 969.988 428 937.041 315 909.909C202 882.776 14.5 927.836 0 882.776V9.63481Z" fill="#242038"/>
</svg>
